<?xml version="1.0" encoding="UTF-8" standalone="no"?> <!-- Created with Vectornator for iOS (http://vectornator.io/) --><!DOCTYPE svg PUBLIC "-//W3C//DTD SVG 1.1//EN" "http://www.w3.org/Graphics/SVG/1.1/DTD/svg11.dtd">
<svg style="fill-rule:evenodd;clip-rule:evenodd;stroke-linecap:round;stroke-linejoin:round;" xmlns:vectornator="http://vectornator.io" xmlns:xlink="http://www.w3.org/1999/xlink" xmlns="http://www.w3.org/2000/svg" xml:space="preserve" version="1.1" viewBox="0 0 140.333 140.333">
<metadata>
<vectornator:setting key="DimensionsVisible" value="1"/>
<vectornator:setting key="SnapToGrid" value="0"/>
<vectornator:setting key="SnapToPoints" value="0"/>
<vectornator:setting key="GuidesVisible" value="1"/>
<vectornator:setting key="RulersVisible" value="1"/>
<vectornator:setting key="CMYKEnabledKey" value="0"/>
<vectornator:setting key="SnapToEdges" value="0"/>
<vectornator:setting key="DisplayWhiteBackground" value="0"/>
<vectornator:setting key="SnapToGuides" value="1"/>
<vectornator:setting key="GridSpacing" value="36"/>
<vectornator:setting key="Units" value="Centimeters"/>
<vectornator:setting key="DynamicGuides" value="0"/>
<vectornator:setting key="New" value="1"/>
</metadata>
<defs/>
<g id="Layer 1" vectornator:layerName="Layer 1">
<path d="M66.8617+0.727757L4.01334+24.2959C1.59929+25.2011-5.99482e-07+27.5089+0+30.0871L0+110.108C-1.3123e-07+112.687+1.59929+114.994+4.01334+115.9L66.8617+139.468C69.4492+140.438+72.3008+140.438+74.8883+139.468L137.737+115.9C140.151+114.994+141.75+112.687+141.75+110.108L141.75+30.0871C141.75+27.5089+140.151+25.2011+137.737+24.2959L74.8883+0.727757C72.3008-0.242585+69.4492-0.242586+66.8617+0.727757Z" opacity="1" fill="#0f111a"/>
<path d="M8.505+31.185C29.295+38.9813+50.085+46.7775+70.875+54.5737C91.665+46.7775+112.455+38.9813+133.245+31.185C112.455+23.3888+91.665+15.5925+70.875+7.79625C50.085+15.5925+29.295+23.3888+8.505+31.185C8.505+57.1725+8.505+83.16+8.505+109.148C29.295+116.944+50.085+124.74+70.875+132.536C91.665+124.74+112.455+116.944+133.245+109.148C133.245+83.6798+133.245+58.212+133.245+32.7443C112.455+40.5405+91.665+48.3367+70.875+56.133C70.875+81.6008+70.875+107.069+70.875+132.536" opacity="1" fill="#ff5370"/>
</g>
</svg>
